<?xml version="1.0" encoding="utf-8"?>
<!-- Generator: Adobe Illustrator 28.1.0, SVG Export Plug-In . SVG Version: 6.00 Build 0)  -->
<svg version="1.1" id="Ebene_1" xmlns="http://www.w3.org/2000/svg" xmlns:xlink="http://www.w3.org/1999/xlink" x="0px" y="0px"
	 viewBox="0 0 323.249 322.039" enable-background="new 0 0 323.249 322.039" xml:space="preserve">
<g>
	<g>
		<g>
			<path fill="#B3B3B3" d="M252.145,160.848c0-0.006,0-0.012,0-0.018c0-0.726-0.038-1.442-0.055-2.164l42.401-1.091
				c-0.039-1.523-0.105-3.066-0.197-4.587l-42.316,2.554c-0.046-0.803-0.115-1.6-0.183-2.398l16.617-1.448
				c-0.106-1.224-0.236-2.463-0.385-3.683l-16.55,2.02c-0.095-0.795-0.188-1.591-0.303-2.379l41.92-6.226
				c-0.223-1.504-0.477-3.029-0.754-4.532l-41.689,7.674c-0.143-0.785-0.279-1.572-0.442-2.35l69.546-14.7
				c-0.384-1.818-0.805-3.651-1.25-5.447l-69.001,17.102c-0.173-0.699-0.356-1.392-0.544-2.084l40.872-11.16
				c-0.404-1.481-0.841-2.975-1.296-4.438l-40.436,12.577c-0.236-0.76-0.505-1.506-0.76-2.258l15.761-5.358
				c-0.398-1.172-0.823-2.353-1.262-3.509l-15.556,5.903c-0.286-0.754-0.582-1.502-0.887-2.246l39.197-16.08
				c-0.581-1.416-1.196-2.845-1.831-4.249l-38.618,17.445c-0.328-0.725-0.644-1.456-0.99-2.17l63.936-31.013
				c-0.804-1.657-1.647-3.323-2.507-4.95l-62.851,33.19c-0.343-0.649-0.692-1.294-1.05-1.934l36.973-20.68
				c-0.743-1.328-1.519-2.661-2.307-3.962l-36.225,21.934c-0.418-0.691-0.864-1.364-1.3-2.043l14.009-9.002
				c-0.664-1.032-1.354-2.067-2.053-3.076l-13.683,9.475c-0.457-0.659-0.921-1.312-1.394-1.959l34.173-25.036
				c-0.903-1.234-1.846-2.473-2.801-3.686l-33.277,26.225c-0.481-0.612-0.953-1.231-1.45-1.83l54.667-45.387
				c-1.182-1.423-2.399-2.84-3.62-4.212l-53.091,47.24c-0.488-0.55-0.984-1.092-1.486-1.63l30.942-28.917
				c-1.028-1.101-2.09-2.198-3.156-3.264l-0.096-0.096l-29.932,29.932c-0.543-0.542-1.11-1.061-1.667-1.59l11.437-12.079
				c-0.882-0.835-1.791-1.667-2.701-2.472l-0.082-0.073l-11.016,12.453c-0.569-0.503-1.14-1.003-1.722-1.492l27.232-32.427
				c-1.163-0.977-2.357-1.945-3.55-2.879l-26.109,33.347c-0.625-0.49-1.244-0.986-1.882-1.46l42.307-57.066
				c-1.485-1.101-3.015-2.194-4.546-3.249l-40.311,58.5c-0.649-0.448-1.307-0.882-1.968-1.314l23.1-35.482
				c-1.281-0.834-2.591-1.655-3.895-2.44l-21.845,36.242c-0.684-0.414-1.385-0.802-2.08-1.198l8.194-14.448
				c-1.072-0.608-2.167-1.204-3.255-1.772l-7.686,14.717c-0.662-0.347-1.325-0.693-1.997-1.024l18.643-37.99
				c-1.371-0.673-2.774-1.331-4.17-1.957l-17.313,38.621c-0.717-0.323-1.429-0.652-2.156-0.957l27.399-65.518
				c-1.717-0.718-3.475-1.418-5.227-2.079l-25.093,66.443c-0.746-0.282-1.498-0.548-2.253-0.811l13.86-39.974
				c-1.431-0.496-2.89-0.974-4.336-1.421l-12.477,40.402c-0.775-0.24-1.563-0.448-2.346-0.668l4.466-15.976
				c-1.176-0.329-2.374-0.642-3.561-0.93l-3.916,16.115c-0.719-0.175-1.441-0.344-2.167-0.501l8.967-41.338
				c-1.486-0.323-3.001-0.624-4.503-0.895l-7.533,41.633c-0.775-0.14-1.545-0.297-2.327-0.417l10.828-70.169
				c-1.838-0.284-3.714-0.539-5.578-0.76l-8.36,70.531c-0.781-0.092-1.562-0.181-2.348-0.253l3.907-42.124
				c-1.515-0.14-3.047-0.256-4.554-0.344l-2.463,42.23c-0.806-0.046-1.618-0.066-2.43-0.091l0.52-16.595
				c-1.226-0.038-2.465-0.056-3.683-0.052l0.048,16.585c-0.738,0.002-1.469,0.035-2.203,0.056l-1.133-42.311
				c-1.526,0.041-3.069,0.109-4.587,0.202l2.595,42.24c-0.792,0.049-1.58,0.111-2.366,0.181L147.525,0
				c-1.84,0.16-3.7,0.354-5.527,0.577l8.585,70.53c-0.779,0.096-1.56,0.182-2.333,0.297l-6.216-41.855
				c-1.504,0.223-3.029,0.477-4.532,0.754l7.665,41.638c-0.787,0.146-1.574,0.292-2.354,0.458l-3.439-16.248
				c-1.2,0.254-2.415,0.534-3.612,0.831l4,16.123c-0.724,0.181-1.439,0.382-2.156,0.58l-11.199-40.843
				c-1.472,0.403-2.959,0.839-4.418,1.294l12.606,40.42c-0.761,0.24-1.509,0.508-2.262,0.767l-22.98-67.27
				c-1.757,0.601-3.529,1.241-5.268,1.903l25.308,66.434c-0.731,0.281-1.462,0.563-2.184,0.863l-16.083-39.203
				c-1.416,0.581-2.845,1.197-4.248,1.831l17.454,38.637c-0.724,0.33-1.451,0.654-2.165,1.003l-7.255-15.002
				c-1.111,0.537-2.231,1.103-3.33,1.683l7.784,14.755c-0.661,0.352-1.312,0.717-1.963,1.084L96.67,45.037
				c-1.337,0.749-2.681,1.533-3.993,2.331l22.012,36.247c-0.669,0.409-1.32,0.843-1.977,1.269L74.213,25.054
				c-1.555,1-3.116,2.044-4.641,3.102l40.548,58.464c-0.652,0.454-1.302,0.91-1.941,1.382L83.096,53.767
				c-1.234,0.904-2.473,1.846-3.685,2.802l26.281,33.348c-0.628,0.498-1.259,0.992-1.873,1.505l-10.697-12.87
				c-0.948,0.789-1.9,1.609-2.829,2.437l11.148,12.492c-0.544,0.487-1.075,0.988-1.607,1.488L70.803,63.973
				c-1.066,0.999-2.13,2.028-3.16,3.058l-0.048,0.048l30.022,30.022c-0.56,0.563-1.099,1.146-1.644,1.723L44.301,49.849
				c-1.277,1.347-2.546,2.732-3.771,4.118l53.338,47.165c-0.518,0.588-1.037,1.176-1.54,1.777L59.793,75.586
				c-0.977,1.163-1.946,2.357-2.879,3.549l33.468,26.205c-0.493,0.632-0.987,1.262-1.463,1.907l-13.481-9.982
				c-0.729,0.984-1.45,1.993-2.142,2.999l13.819,9.517c-0.424,0.617-0.83,1.245-1.239,1.873l-35.605-23.23
				c-0.832,1.275-1.652,2.581-2.438,3.882l36.374,21.983c-0.408,0.676-0.793,1.367-1.183,2.055L21.13,81.089
				c-0.919,1.613-1.823,3.266-2.686,4.912l63.084,33.089c-0.365,0.699-0.733,1.397-1.081,2.107l-38.168-18.73
				c-0.673,1.371-1.331,2.774-1.957,4.17l38.812,17.398c-0.326,0.73-0.655,1.459-0.963,2.199l-15.507-6.466
				c-0.474,1.137-0.935,2.299-1.369,3.453l15.726,5.924c-0.263,0.7-0.507,1.409-0.753,2.117l-40.175-13.967
				c-0.496,1.427-0.973,2.879-1.419,4.317l40.61,12.589c-0.232,0.75-0.434,1.513-0.646,2.272l-68.591-19.33
				c-0.506,1.794-0.987,3.624-1.43,5.438l69.226,16.915c-0.186,0.767-0.368,1.535-0.534,2.31l-41.578-9.019
				c-0.323,1.486-0.624,3.001-0.895,4.503l41.882,7.578c-0.142,0.793-0.297,1.583-0.418,2.383l-16.632-2.555
				c-0.186,1.212-0.354,2.447-0.499,3.669l16.736,1.981c-0.084,0.726-0.164,1.453-0.231,2.184l-42.377-3.977
				c-0.142,1.511-0.26,3.043-0.349,4.554l42.49,2.524c-0.045,0.786-0.064,1.579-0.088,2.37l-71.262-2.333
				C0.029,157.443,0,159.242,0,161.014v0.083h71.285c0.002,0.791,0.038,1.574,0.06,2.36l-42.59,1.141
				c0.041,1.526,0.109,3.069,0.202,4.587l42.522-2.612c0.05,0.801,0.111,1.599,0.183,2.395l-16.821,1.483
				c0.108,1.226,0.239,2.465,0.389,3.682l16.772-2.065c0.091,0.732,0.171,1.467,0.28,2.194l-42.137,6.23
				c0.223,1.511,0.475,3.032,0.748,4.521l41.923-7.681c0.145,0.779,0.286,1.559,0.45,2.331L3.458,194.346
				c0.381,1.811,0.798,3.639,1.241,5.434l69.268-17.083c0.189,0.76,0.398,1.511,0.606,2.263l-41.126,11.277
				c0.404,1.472,0.839,2.959,1.294,4.418l40.7-12.694c0.24,0.76,0.507,1.507,0.766,2.258l-16.03,5.469
				c0.397,1.166,0.821,2.341,1.26,3.493l15.837-6.024c0.268,0.697,0.538,1.393,0.822,2.081l-39.481,16.161
				c0.583,1.425,1.199,2.858,1.831,4.257l38.908-17.545c0.326,0.718,0.644,1.44,0.988,2.147l-64.25,31.102
				c0.8,1.653,1.638,3.313,2.491,4.932l63.174-33.274c0.371,0.7,0.754,1.392,1.143,2.081l-37.257,20.875
				c0.749,1.337,1.534,2.681,2.331,3.993l36.492-22.161c0.417,0.682,0.86,1.346,1.294,2.017l-14.298,9.203
				c0.669,1.039,1.366,2.082,2.073,3.1l13.97-9.7c0.422,0.605,0.847,1.209,1.283,1.804l-34.473,25.225
				c0.897,1.227,1.831,2.457,2.773,3.656l33.593-26.409c0.479,0.607,0.95,1.221,1.444,1.816l-55,45.563
				c1.178,1.421,2.394,2.84,3.616,4.216l53.42-47.43c0.529,0.595,1.068,1.178,1.613,1.759l-31.194,29.216
				c0.999,1.066,2.028,2.13,3.058,3.16l0.048,0.048l30.209-30.209c0.58,0.578,1.184,1.134,1.779,1.696l-11.694,12.378
				c0.857,0.81,1.737,1.614,2.618,2.393l0.041,0.036l11.28-12.752c0.561,0.496,1.124,0.989,1.698,1.471l-27.503,32.71
				c1.156,0.972,2.339,1.933,3.517,2.857l26.393-33.626c0.622,0.488,1.238,0.982,1.873,1.453l-42.582,57.358
				c1.492,1.107,3.016,2.199,4.531,3.245l40.588-58.797c0.645,0.446,1.299,0.878,1.956,1.307L89.03,272.373
				c1.274,0.831,2.581,1.652,3.882,2.438l22.1-36.568c0.683,0.413,1.383,0.8,2.077,1.196l-8.413,14.799
				c1.067,0.606,2.159,1.203,3.245,1.771l7.895-15.074c0.661,0.347,1.323,0.692,1.994,1.023l-18.874,38.332
				c1.386,0.682,2.802,1.349,4.208,1.98l17.506-38.982c0.709,0.32,1.413,0.649,2.132,0.951l-27.606,65.869
				c1.727,0.724,3.488,1.426,5.234,2.087l25.281-66.806c0.741,0.281,1.488,0.55,2.238,0.812L117.9,286.55
				c1.427,0.496,2.879,0.974,4.316,1.419l12.641-40.775c0.774,0.241,1.564,0.447,2.347,0.668l-4.589,16.366
				c1.173,0.329,2.365,0.642,3.545,0.93l4.029-16.502c0.722,0.177,1.447,0.344,2.175,0.503l-9.086,41.721
				c1.478,0.322,2.981,0.623,4.468,0.894l7.659-42.011c0.773,0.141,1.542,0.294,2.322,0.416l-10.93,70.552
				c1.827,0.283,3.687,0.538,5.528,0.759l8.489-70.906c0.776,0.094,1.551,0.189,2.333,0.263l-3.988,42.499
				c1.511,0.142,3.044,0.26,4.554,0.349l2.531-42.612c0.803,0.048,1.611,0.076,2.419,0.104l-0.55,16.971
				c1.224,0.04,2.463,0.059,3.683,0.057l-0.031-16.952c0.74,0,1.471-0.038,2.207-0.056l1.098,42.679
				c1.522-0.039,3.066-0.105,4.587-0.198l-2.571-42.598c0.789-0.046,1.573-0.113,2.356-0.18l6.15,71.128
				c1.83-0.158,3.674-0.349,5.481-0.567l-8.542-70.877c0.778-0.093,1.556-0.184,2.328-0.297l6.24,42.203
				c1.511-0.223,3.032-0.475,4.521-0.748l-7.69-41.974c0.788-0.143,1.578-0.278,2.358-0.442l3.495,16.565
				c1.205-0.254,2.418-0.532,3.603-0.825l-4.065-16.441c0.723-0.178,1.44-0.367,2.156-0.562l11.237,41.155
				c1.481-0.404,2.975-0.84,4.439-1.296l-12.664-40.716c0.755-0.234,1.495-0.501,2.242-0.755l22.986,67.576
				c1.779-0.605,3.569-1.25,5.321-1.916l-25.362-66.71c0.729-0.276,1.453-0.563,2.173-0.858l16.158,39.476
				c1.425-0.583,2.858-1.199,4.257-1.831l-17.537-38.889c0.723-0.326,1.455-0.638,2.168-0.982l7.352,15.231
				c1.119-0.54,2.241-1.106,3.337-1.684l-7.892-14.982c0.662-0.348,1.32-0.702,1.971-1.066l20.821,37.226
				c1.329-0.743,2.662-1.52,3.963-2.307l-22.084-36.473c0.671-0.406,1.324-0.836,1.983-1.259l38.565,60.04
				c1.548-0.994,3.099-2.028,4.61-3.074l-40.583-58.679c0.654-0.452,1.301-0.914,1.943-1.382l25.179,34.411
				c1.227-0.898,2.457-1.831,3.656-2.773l-26.353-33.521c0.635-0.498,1.279-0.985,1.9-1.499l10.793,13.001
				c0.944-0.783,1.888-1.595,2.807-2.413l-11.244-12.63c0.549-0.487,1.093-0.979,1.63-1.479l29.102,31.14
				c1.1-1.028,2.198-2.09,3.264-3.156l0.096-0.096l-30.121-30.121c0.522-0.521,1.02-1.066,1.529-1.6l51.713,49.119
				c1.275-1.342,2.546-2.727,3.774-4.114l-53.368-47.292c0.521-0.586,1.034-1.179,1.541-1.778l32.601,27.412
				c0.972-1.156,1.933-2.339,2.857-3.517l-33.505-26.298c0.5-0.634,1.009-1.26,1.493-1.907l13.529,10.031
				c0.726-0.978,1.441-1.978,2.127-2.972l-13.866-9.574c0.465-0.669,0.919-1.345,1.367-2.028l35.679,23.228
				c0.834-1.281,1.655-2.591,2.44-3.894l-36.436-21.962c0.376-0.62,0.725-1.258,1.086-1.887l61.885,35.339
				c0.926-1.621,1.835-3.28,2.703-4.931l-63.068-33.144c0.366-0.692,0.724-1.389,1.073-2.092l38.154,18.786
				c0.682-1.386,1.348-2.802,1.98-4.208l-38.791-17.42c0.328-0.722,0.668-1.438,0.978-2.17l15.469,6.474
				c0.481-1.149,0.948-2.322,1.387-3.485l-15.696-5.925c0.288-0.753,0.564-1.511,0.832-2.274l40.149,13.921
				c0.496-1.431,0.974-2.89,1.421-4.336l-40.571-12.53c0.216-0.692,0.4-1.397,0.6-2.096l68.512,19.362
				c0.503-1.781,0.982-3.595,1.424-5.391l-69.119-16.983c0.191-0.767,0.364-1.54,0.535-2.314l41.481,9.034
				c0.322-1.478,0.623-2.982,0.894-4.469l-41.761-7.613c0.148-0.798,0.303-1.594,0.43-2.399l16.513,2.551
				c0.186-1.206,0.354-2.431,0.499-3.641l-16.604-1.988c0.097-0.794,0.196-1.587,0.271-2.388l42.246,3.918
				c0.14-1.515,0.257-3.047,0.344-4.554l-42.353-2.47c0.043-0.726,0.072-1.456,0.098-2.187l71.094,2.405
				c0.062-1.83,0.094-3.687,0.094-5.52v-0.166H252.145z M250.369,164.071c-0.026,0.717-0.053,1.433-0.096,2.146
				c-0.062,1.02-0.137,2.037-0.232,3.048c-0.074,0.785-0.172,1.564-0.267,2.343c-0.123,1.01-0.244,2.021-0.401,3.021
				c-0.124,0.79-0.277,1.571-0.422,2.354c-0.185,1.003-0.384,2-0.603,2.991c-0.168,0.76-0.338,1.518-0.525,2.27
				c-0.247,0.993-0.522,1.976-0.802,2.956c-0.197,0.686-0.377,1.378-0.589,2.057c-0.304,0.973-0.643,1.931-0.98,2.889
				c-0.263,0.748-0.534,1.492-0.816,2.231c-0.368,0.965-0.737,1.931-1.137,2.88c-0.304,0.719-0.638,1.421-0.96,2.13
				c-0.426,0.937-0.86,1.868-1.317,2.788c-0.343,0.689-0.693,1.373-1.053,2.052c-0.479,0.906-0.98,1.797-1.49,2.684
				c-0.355,0.618-0.697,1.244-1.067,1.853c-0.531,0.874-1.093,1.726-1.652,2.579c-0.439,0.669-0.885,1.333-1.341,1.99
				c-0.577,0.83-1.153,1.659-1.757,2.469c-0.474,0.635-0.974,1.249-1.464,1.87c-0.628,0.796-1.263,1.585-1.917,2.358
				c-0.497,0.588-1,1.17-1.512,1.745c-0.679,0.762-1.375,1.506-2.08,2.244c-0.499,0.523-0.988,1.058-1.499,1.569
				c-0.75,0.749-1.524,1.471-2.3,2.193c-0.527,0.49-1.061,0.973-1.6,1.451c-0.763,0.676-1.526,1.353-2.312,2.003
				c-0.61,0.504-1.241,0.982-1.865,1.47c-0.802,0.628-1.612,1.248-2.436,1.848c-0.63,0.459-1.263,0.913-1.906,1.356
				c-0.836,0.577-1.688,1.132-2.544,1.681c-0.647,0.414-1.288,0.837-1.946,1.235c-0.871,0.527-1.759,1.028-2.649,1.525
				c-0.639,0.357-1.285,0.704-1.934,1.046c-0.909,0.479-1.817,0.96-2.744,1.407c-0.7,0.338-1.417,0.644-2.127,0.964
				c-0.934,0.421-1.874,0.831-2.825,1.22c-0.707,0.29-1.417,0.572-2.133,0.843c-0.954,0.362-1.919,0.699-2.888,1.028
				c-0.732,0.249-1.459,0.511-2.2,0.741c-0.975,0.303-1.965,0.571-2.955,0.841c-0.702,0.192-1.407,0.377-2.116,0.552
				c-0.987,0.243-1.977,0.479-2.977,0.689c-0.766,0.16-1.541,0.293-2.314,0.433c-1,0.182-2.001,0.361-3.013,0.509
				c-0.757,0.111-1.52,0.199-2.283,0.291c-1.006,0.12-2.016,0.224-3.032,0.311c-0.769,0.065-1.538,0.131-2.312,0.176
				c-1.013,0.06-2.033,0.089-3.055,0.114c-0.722,0.018-1.44,0.054-2.167,0.055c-0.017,0-0.033,0.001-0.049,0.001
				c-1.004,0-1.999-0.043-2.995-0.076c-0.793-0.027-1.586-0.054-2.374-0.101c-1.018-0.061-2.031-0.137-3.039-0.232
				c-0.767-0.072-1.528-0.167-2.29-0.258c-1.013-0.123-2.027-0.242-3.029-0.398c-0.765-0.119-1.519-0.269-2.278-0.408
				c-1-0.183-1.996-0.377-2.984-0.593c-0.714-0.156-1.426-0.32-2.133-0.493c-0.984-0.241-1.958-0.505-2.928-0.779
				c-0.768-0.217-1.542-0.418-2.302-0.655c-0.969-0.302-1.921-0.64-2.876-0.975c-0.736-0.257-1.468-0.521-2.195-0.797
				c-0.957-0.364-1.912-0.731-2.853-1.127c-0.706-0.297-1.396-0.62-2.093-0.934c-0.936-0.422-1.868-0.851-2.786-1.305
				c-0.658-0.325-1.308-0.663-1.956-1.003c-0.902-0.474-1.793-0.964-2.676-1.468c-0.681-0.388-1.368-0.768-2.038-1.173
				c-0.871-0.528-1.722-1.085-2.574-1.642c-0.645-0.421-1.286-0.845-1.919-1.283c-0.838-0.579-1.673-1.165-2.49-1.771
				c-0.623-0.463-1.227-0.947-1.837-1.426c-0.797-0.624-1.588-1.254-2.362-1.905c-0.563-0.473-1.115-0.957-1.666-1.444
				c-0.747-0.66-1.48-1.334-2.205-2.018c-0.584-0.552-1.176-1.096-1.744-1.663c-0.711-0.709-1.396-1.443-2.083-2.175
				c-0.534-0.569-1.063-1.142-1.583-1.726c-0.676-0.76-1.348-1.523-1.998-2.305c-0.485-0.584-0.947-1.186-1.417-1.782
				c-0.631-0.8-1.255-1.604-1.858-2.426c-0.428-0.583-0.845-1.175-1.259-1.769c-0.586-0.84-1.154-1.692-1.712-2.553
				c-0.426-0.658-0.861-1.31-1.27-1.98c-0.532-0.872-1.033-1.764-1.536-2.655c-0.381-0.677-0.757-1.355-1.121-2.043
				c-0.475-0.896-0.945-1.795-1.389-2.708c-0.337-0.694-0.649-1.402-0.969-2.105c-0.424-0.933-0.841-1.869-1.234-2.819
				c-0.279-0.675-0.543-1.358-0.806-2.042c-0.366-0.953-0.713-1.914-1.047-2.882c-0.254-0.737-0.516-1.47-0.751-2.216
				c-0.306-0.972-0.579-1.958-0.852-2.944c-0.205-0.738-0.409-1.475-0.595-2.22c-0.246-0.987-0.476-1.979-0.689-2.978
				c-0.161-0.758-0.3-1.523-0.442-2.287c-0.185-1.001-0.372-2.001-0.523-3.013c-0.107-0.713-0.185-1.435-0.275-2.153
				c-0.126-1.01-0.241-2.022-0.333-3.042c-0.07-0.78-0.13-1.563-0.179-2.349c-0.064-1.014-0.103-2.034-0.132-3.057
				c-0.022-0.771-0.057-1.539-0.059-2.314c0-0.089-0.007-0.177-0.007-0.267c0-0.93,0.042-1.851,0.07-2.774
				c0.024-0.777,0.042-1.554,0.086-2.326c0.058-1.02,0.14-2.033,0.232-3.043c0.066-0.717,0.144-1.43,0.226-2.143
				c0.118-1.016,0.235-2.032,0.387-3.037c0.119-0.785,0.271-1.56,0.41-2.339c0.18-1.006,0.366-2.01,0.58-3.004
				c0.163-0.76,0.342-1.514,0.524-2.267c0.242-0.996,0.504-1.983,0.779-2.965c0.208-0.745,0.407-1.493,0.635-2.23
				c0.3-0.972,0.634-1.928,0.966-2.885c0.241-0.695,0.48-1.39,0.738-2.076c0.36-0.96,0.736-1.913,1.128-2.857
				c0.302-0.726,0.624-1.441,0.945-2.158c0.418-0.935,0.839-1.867,1.288-2.784c0.341-0.696,0.701-1.381,1.06-2.067
				c0.474-0.907,0.964-1.804,1.468-2.693c0.383-0.675,0.761-1.353,1.161-2.017c0.527-0.875,1.082-1.73,1.638-2.585
				c0.401-0.616,0.8-1.233,1.215-1.838c0.576-0.84,1.166-1.669,1.77-2.487c0.468-0.633,0.952-1.252,1.436-1.872
				c0.627-0.804,1.256-1.604,1.909-2.386c0.494-0.591,1.003-1.167,1.512-1.745c0.675-0.766,1.364-1.52,2.065-2.262
				c0.535-0.566,1.063-1.138,1.613-1.691c0.71-0.714,1.444-1.404,2.177-2.094c0.522-0.491,1.043-0.982,1.577-1.461
				c0.766-0.687,1.543-1.361,2.333-2.021c0.603-0.504,1.222-0.99,1.839-1.478c0.805-0.637,1.613-1.269,2.439-1.879
				c0.627-0.462,1.266-0.91,1.906-1.356c0.837-0.584,1.686-1.15,2.543-1.705c0.645-0.417,1.284-0.844,1.94-1.245
				c0.875-0.535,1.769-1.039,2.663-1.544c0.638-0.36,1.277-0.719,1.925-1.064c0.908-0.483,1.822-0.957,2.748-1.409
				c0.7-0.342,1.414-0.66,2.125-0.984c0.935-0.426,1.872-0.847,2.823-1.241c0.709-0.294,1.426-0.571,2.144-0.847
				c0.954-0.366,1.916-0.713,2.885-1.047c0.738-0.254,1.472-0.517,2.219-0.752c0.975-0.307,1.965-0.581,2.955-0.854
				c0.704-0.195,1.406-0.392,2.116-0.57c0.991-0.248,1.99-0.478,2.993-0.693c0.765-0.163,1.538-0.306,2.31-0.449
				c1.005-0.187,2.01-0.375,3.026-0.527c0.758-0.114,1.525-0.198,2.288-0.292c1.011-0.125,2.026-0.237,3.048-0.328
				c0.772-0.068,1.546-0.129,2.323-0.177c1.017-0.063,2.041-0.1,3.067-0.128c0.721-0.02,1.438-0.052,2.163-0.055
				c0.108,0,0.215-0.008,0.324-0.008c0.917,0,1.823,0.042,2.733,0.069c0.796,0.024,1.594,0.044,2.385,0.089
				c1.023,0.058,2.039,0.14,3.052,0.233c0.772,0.071,1.539,0.157,2.305,0.248c1.02,0.121,2.041,0.235,3.051,0.39
				c0.767,0.118,1.523,0.271,2.284,0.409c1.009,0.182,2.015,0.373,3.011,0.589c0.712,0.155,1.42,0.32,2.126,0.492
				c0.992,0.241,1.975,0.502,2.954,0.776c0.769,0.215,1.542,0.42,2.302,0.655c0.976,0.302,1.937,0.639,2.898,0.974
				c0.74,0.258,1.478,0.519,2.209,0.795c0.962,0.364,1.92,0.736,2.865,1.132c0.713,0.299,1.413,0.622,2.117,0.939
				c0.936,0.421,1.868,0.848,2.786,1.3c0.659,0.325,1.309,0.664,1.959,1.005c0.908,0.476,1.806,0.968,2.695,1.475
				c0.683,0.388,1.37,0.769,2.042,1.175c0.877,0.53,1.734,1.089,2.591,1.649c0.648,0.424,1.294,0.85,1.931,1.289
				c0.843,0.582,1.68,1.17,2.502,1.781c0.626,0.465,1.234,0.952,1.847,1.432c0.803,0.63,1.601,1.266,2.382,1.922
				c0.57,0.479,1.131,0.97,1.689,1.463c0.787,0.697,1.558,1.409,2.32,2.133c0.546,0.518,1.101,1.026,1.634,1.558
				c0.752,0.75,1.477,1.527,2.202,2.304c0.492,0.528,0.979,1.06,1.458,1.599c0.678,0.763,1.354,1.529,2.006,2.315
				c0.487,0.588,0.95,1.196,1.423,1.796c0.635,0.807,1.262,1.62,1.87,2.45c0.464,0.635,0.92,1.275,1.368,1.922
				c0.581,0.84,1.142,1.694,1.695,2.554c0.428,0.667,0.865,1.327,1.276,2.005c0.529,0.874,1.031,1.765,1.53,2.657
				c0.351,0.628,0.694,1.261,1.03,1.898c0.475,0.901,0.95,1.802,1.395,2.721c0.34,0.701,0.649,1.418,0.97,2.129
				c0.423,0.936,0.837,1.876,1.228,2.829c0.3,0.73,0.59,1.465,0.871,2.205c0.365,0.96,0.705,1.932,1.036,2.908
				c0.251,0.738,0.514,1.47,0.746,2.216c0.304,0.979,0.573,1.972,0.844,2.964c0.185,0.679,0.365,1.36,0.534,2.046
				c0.244,0.991,0.481,1.985,0.691,2.988c0.16,0.763,0.293,1.536,0.434,2.306c0.183,1.005,0.364,2.01,0.513,3.027
				c0.113,0.774,0.204,1.555,0.297,2.335c0.121,1.012,0.225,2.03,0.312,3.052c0.066,0.783,0.134,1.565,0.179,2.353
				c0.059,1.016,0.086,2.04,0.11,3.065c0.017,0.707,0.054,1.409,0.054,2.121c0,0.006,0,0.012,0,0.018
				C250.45,161.929,250.408,163,250.369,164.071z"/>
		</g>
	</g>
	<g>
		<g>
			<g>
				<path fill="#B3B3B3" d="M172.909,306.599c0,0-0.511-57.752,0-68.732c0.511-10.98,12.837-16.662,12.837-16.662
					c6.628-2.734,12.695-6.55,17.982-11.228c13.246-11.718,21.597-28.843,21.597-47.918c0-35.322-28.379-63.955-63.7-63.955
					s-63.7,28.634-63.7,63.955c0,19.076,8.351,36.201,21.597,47.918c5.288,4.678,11.355,8.493,17.982,11.228
					c0,0,12.326,5.682,12.837,16.662c0.511,10.98,0,68.732,0,68.732"/>
				<path fill="#FFFFFF" d="M170.998,306.615c-0.021-2.36-0.505-57.93,0.002-68.837c0.233-5.016,2.74-9.784,7.25-13.788
					c3.319-2.947,6.559-4.457,6.696-4.52l0.071-0.031c6.382-2.633,12.251-6.298,17.445-10.893
					c6.523-5.77,11.669-12.69,15.296-20.568c3.753-8.151,5.656-16.872,5.656-25.919c0-8.383-1.627-16.51-4.837-24.155
					c-3.103-7.391-7.548-14.027-13.212-19.721c-5.668-5.699-12.273-10.172-19.633-13.295c-7.623-3.234-15.734-4.874-24.108-4.874
					s-16.485,1.64-24.108,4.874c-7.36,3.123-13.965,7.596-19.633,13.295c-5.663,5.695-10.108,12.33-13.212,19.721
					c-3.21,7.645-4.837,15.772-4.837,24.155c0,9.047,1.903,17.768,5.656,25.919c3.627,7.878,8.774,14.798,15.296,20.568
					c5.194,4.595,11.063,8.26,17.445,10.893l0.071,0.031c0.136,0.063,3.377,1.573,6.696,4.52c4.51,4.004,7.016,8.772,7.25,13.788
					c0.507,10.907,0.023,66.477,0.002,68.837l-3.821-0.034c0.005-0.577,0.504-57.824,0.002-68.626
					c-0.186-3.991-2.169-7.706-5.894-11.041c-2.745-2.458-5.496-3.812-5.807-3.962c-6.758-2.794-12.974-6.678-18.475-11.544
					c-6.922-6.124-12.385-13.469-16.235-21.832c-3.986-8.656-6.007-17.914-6.007-27.517c0-8.894,1.728-17.518,5.135-25.634
					c3.295-7.847,8.013-14.891,14.025-20.937c6.018-6.051,13.033-10.801,20.85-14.118c8.097-3.436,16.711-5.178,25.601-5.178
					s17.503,1.742,25.601,5.178c7.817,3.317,14.832,8.067,20.85,14.118c6.012,6.045,10.731,13.089,14.025,20.937
					c3.407,8.116,5.135,16.74,5.135,25.634c0,9.603-2.021,18.861-6.007,27.517c-3.851,8.363-9.313,15.708-16.235,21.832
					c-5.501,4.866-11.717,8.75-18.475,11.545c-0.301,0.144-3.056,1.499-5.807,3.961c-3.726,3.335-5.709,7.05-5.894,11.041
					c-0.502,10.802-0.003,68.049,0.002,68.626L170.998,306.615z"/>
			</g>
			<g>
				<rect x="150.341" y="304.743" fill="#FFFFFF" width="22.568" height="3.712"/>
			</g>
			<g>
				<g>
					<path fill="#333333" d="M163.418,304.415h-0.983v-15.851c0-0.277-0.008-0.553-0.017-0.845c-0.027-0.88-0.054-1.789,0.162-2.678
						c0.471-1.938,1.569-3.843,2.407-5.099c1.137-1.705,1.15-5.662,1.15-5.701h0.983c0,0.174-0.015,4.297-1.316,6.247
						c-1.139,1.708-1.924,3.363-2.27,4.786c-0.185,0.759-0.16,1.564-0.134,2.416c0.009,0.287,0.018,0.583,0.018,0.875V304.415z"/>
				</g>
				<g>
					<path fill="#333333" d="M166.096,239.185h-0.983c0-15.231,2.152-29.843,4.549-44.715c0.438-2.718,0.974-5.507,1.493-8.204
						c1.68-8.74,3.418-17.778,2.318-26.595c-0.694-5.563-2.172-11.261-7.874-11.338c-0.706-0.009-1.376,0.059-2.008,0.207
						c5.799,6.079,3.528,25.044,3.426,25.865c-0.695,5.613-1.471,11.309-2.222,16.818c-0.448,3.289-0.911,6.689-1.352,10.035
						c-0.022,0.171-0.064,0.489-0.315,0.718c-0.236,0.216-0.531,0.24-0.69,0.252c-0.831,0.066-1.673,0.054-2.502-0.036
						c-0.157-0.017-0.485-0.053-0.722-0.3c-0.209-0.218-0.248-0.492-0.271-0.656c-0.977-6.936-1.68-14.015-2.36-20.862l-0.107-1.076
						c-0.108-1.085-0.211-2.17-0.314-3.255c-0.199-2.097-0.405-4.265-0.643-6.39c-0.75-6.686-0.182-15.341,3.659-19.579
						c0.716-0.789,1.522-1.409,2.415-1.856c-1.098-0.602-2.37-0.727-3.857-0.386c-10.93,2.511-9.225,19.908-7.236,30.055
						c2.292,11.692,3.892,21.379,5.034,30.484c1.397,11.136,2.076,21.216,2.076,30.817h-0.983c0-22.108-3.79-44.273-7.091-61.112
						c-1.338-6.826-1.78-12.732-1.313-17.553c0.758-7.814,3.884-12.406,9.292-13.648c2.005-0.461,3.747-0.161,5.189,0.89
						c0.896-0.288,1.866-0.426,2.905-0.412c7.326,0.1,8.384,8.578,8.835,12.199c1.119,8.971-0.633,18.087-2.328,26.902
						c-0.517,2.69-1.052,5.472-1.488,8.175C168.242,209.458,166.096,224.026,166.096,239.185z M159.934,201.198
						c0.026,0.005,0.062,0.01,0.109,0.015c0.768,0.083,1.549,0.094,2.319,0.034c0.038-0.003,0.068-0.006,0.091-0.009
						c0.008-0.038,0.014-0.087,0.017-0.11c0.441-3.348,0.905-6.749,1.353-10.039c0.75-5.506,1.525-11.199,2.22-16.806
						c0.132-1.064,0.772-6.68,0.423-12.713c-0.365-6.309-1.713-10.686-3.9-12.659c-0.013-0.012-0.026-0.023-0.039-0.035
						c-0.986,0.4-1.861,1.019-2.619,1.855c-1.738,1.917-2.879,4.932-3.393,8.961c-0.52,4.075-0.234,7.92-0.018,9.849
						c0.239,2.134,0.446,4.306,0.645,6.407c0.103,1.084,0.206,2.168,0.313,3.251l0.107,1.077c0.679,6.837,1.381,13.906,2.355,20.822
						C159.921,201.12,159.927,201.164,159.934,201.198z M159.945,201.237L159.945,201.237L159.945,201.237z M162.498,201.227
						L162.498,201.227L162.498,201.227z"/>
				</g>
				<g>
					<path fill="#333333" d="M160.28,304.415h-0.983v-16.788c0-1.282-0.029-2.271-0.4-3.323c-0.495-1.402-1.282-2.672-1.987-3.729
						c-1.301-1.95-1.316-6.072-1.316-6.247V239.91c0-0.671,0.546-1.217,1.217-1.217h0.596c0.671,0,1.217,0.546,1.217,1.217v34.375
						c0,1.399,0.799,2.537,1.781,2.537h1.905c0.982,0,1.781-1.138,1.781-2.537V239.91c0-0.671,0.546-1.217,1.217-1.217h0.596
						c0.671,0,1.217,0.546,1.217,1.217v34.418h-0.983V239.91c0-0.129-0.105-0.234-0.234-0.234h-0.596
						c-0.129,0-0.234,0.105-0.234,0.234v34.375c0,1.974-1.214,3.52-2.764,3.52h-1.905c-1.55,0-2.764-1.546-2.764-3.52V239.91
						c0-0.129-0.105-0.234-0.234-0.234h-0.596c-0.129,0-0.234,0.105-0.234,0.234v34.418c0,0.04,0.015,3.999,1.151,5.701
						c0.739,1.108,1.565,2.443,2.096,3.947c0.456,1.292,0.456,2.545,0.456,3.65V304.415z"/>
				</g>
			</g>
		</g>
	</g>
</g>
</svg>
